<svg xmlns="http://www.w3.org/2000/svg" xmlns:xlink="http://www.w3.org/1999/xlink" width="500" zoomAndPan="magnify" viewBox="0 0 375 225" height="300" preserveAspectRatio="xMidYMid meet" version="1.0"><defs><g/></defs><g fill="#bfe4f9" fill-opacity="0.4"><g transform="translate(9.25341, 106.403772)"><g><path d="M 0.9375 -77.453125 L 0.9375 -96.828125 L 69 -96.828125 L 69 -77.453125 L 46 -77.453125 L 46 0 L 23.9375 0 L 23.9375 -77.453125 Z M 0.9375 -77.453125 "/></g></g></g><g fill="#bfe4f9" fill-opacity="0.4"><g transform="translate(73.326379, 106.403772)"><g><path d="M 7.046875 0 L 7.046875 -60.203125 L 27.8125 -60.203125 L 27.8125 -51.515625 L 28.046875 -51.515625 C 28.203125 -51.828125 28.457031 -52.21875 28.8125 -52.6875 C 29.164062 -53.164062 29.925781 -53.988281 31.09375 -55.15625 C 32.269531 -56.332031 33.519531 -57.390625 34.84375 -58.328125 C 36.175781 -59.265625 37.898438 -60.101562 40.015625 -60.84375 C 42.128906 -61.59375 44.28125 -61.96875 46.46875 -61.96875 C 48.738281 -61.96875 50.96875 -61.65625 53.15625 -61.03125 C 55.351562 -60.40625 56.957031 -59.78125 57.96875 -59.15625 L 59.625 -58.203125 L 50.9375 -40.609375 C 48.351562 -42.796875 44.753906 -43.890625 40.140625 -43.890625 C 37.628906 -43.890625 35.472656 -43.34375 33.671875 -42.25 C 31.878906 -41.15625 30.609375 -39.820312 29.859375 -38.25 C 29.117188 -36.6875 28.59375 -35.359375 28.28125 -34.265625 C 27.96875 -33.171875 27.8125 -32.3125 27.8125 -31.6875 L 27.8125 0 Z M 7.046875 0 "/></g></g></g><g fill="#bfe4f9" fill-opacity="0.4"><g transform="translate(125.898943, 106.403772)"><g><path d="M 9.03125 -93.765625 C 11.457031 -96.191406 14.351562 -97.40625 17.71875 -97.40625 C 21.082031 -97.40625 23.976562 -96.191406 26.40625 -93.765625 C 28.832031 -91.335938 30.046875 -88.441406 30.046875 -85.078125 C 30.046875 -81.722656 28.832031 -78.832031 26.40625 -76.40625 C 23.976562 -73.976562 21.082031 -72.765625 17.71875 -72.765625 C 14.351562 -72.765625 11.457031 -73.976562 9.03125 -76.40625 C 6.613281 -78.832031 5.40625 -81.722656 5.40625 -85.078125 C 5.40625 -88.441406 6.613281 -91.335938 9.03125 -93.765625 Z M 7.046875 -60.203125 L 7.046875 0 L 27.8125 0 L 27.8125 -60.203125 Z M 7.046875 -60.203125 "/></g></g></g><g fill="#bfe4f9" fill-opacity="0.4"><g transform="translate(155.47074, 106.403772)"><g><path d="M 7.046875 0 L 7.046875 -60.203125 L 27.8125 -60.203125 L 27.8125 -53.875 L 28.046875 -53.875 C 33.441406 -59.269531 39.191406 -61.96875 45.296875 -61.96875 C 48.273438 -61.96875 51.226562 -61.578125 54.15625 -60.796875 C 57.09375 -60.015625 59.910156 -58.800781 62.609375 -57.15625 C 65.304688 -55.507812 67.492188 -53.179688 69.171875 -50.171875 C 70.859375 -47.160156 71.703125 -43.660156 71.703125 -39.671875 L 71.703125 0 L 50.9375 0 L 50.9375 -34.03125 C 50.9375 -37.164062 49.9375 -39.90625 47.9375 -42.25 C 45.945312 -44.59375 43.347656 -45.765625 40.140625 -45.765625 C 37.003906 -45.765625 34.164062 -44.550781 31.625 -42.125 C 29.082031 -39.707031 27.8125 -37.007812 27.8125 -34.03125 L 27.8125 0 Z M 7.046875 0 "/></g></g></g><g fill="#bfe4f9" fill-opacity="0.4"><g transform="translate(227.171506, 106.403772)"><g><path d="M 9.03125 -93.765625 C 11.457031 -96.191406 14.351562 -97.40625 17.71875 -97.40625 C 21.082031 -97.40625 23.976562 -96.191406 26.40625 -93.765625 C 28.832031 -91.335938 30.046875 -88.441406 30.046875 -85.078125 C 30.046875 -81.722656 28.832031 -78.832031 26.40625 -76.40625 C 23.976562 -73.976562 21.082031 -72.765625 17.71875 -72.765625 C 14.351562 -72.765625 11.457031 -73.976562 9.03125 -76.40625 C 6.613281 -78.832031 5.40625 -81.722656 5.40625 -85.078125 C 5.40625 -88.441406 6.613281 -91.335938 9.03125 -93.765625 Z M 7.046875 -60.203125 L 7.046875 0 L 27.8125 0 L 27.8125 -60.203125 Z M 7.046875 -60.203125 "/></g></g></g><g fill="#bfe4f9" fill-opacity="0.4"><g transform="translate(256.743303, 106.403772)"><g><path d="M 10.5625 -60.203125 L 10.5625 -82.625 L 31.328125 -82.625 L 31.328125 -60.203125 L 44.015625 -60.203125 L 44.015625 -44.359375 L 31.328125 -44.359375 L 31.328125 -25.234375 C 31.328125 -19.679688 32.894531 -16.90625 36.03125 -16.90625 C 36.8125 -16.90625 37.628906 -17.0625 38.484375 -17.375 C 39.347656 -17.6875 40.015625 -18 40.484375 -18.3125 L 41.1875 -18.78125 L 46.359375 -2 C 41.898438 0.507812 36.8125 1.765625 31.09375 1.765625 C 27.1875 1.765625 23.820312 1.082031 21 -0.28125 C 18.1875 -1.65625 16.054688 -3.492188 14.609375 -5.796875 C 13.160156 -8.109375 12.125 -10.535156 11.5 -13.078125 C 10.875 -15.628906 10.5625 -18.347656 10.5625 -21.234375 L 10.5625 -44.359375 L 1.875 -44.359375 L 1.875 -60.203125 Z M 10.5625 -60.203125 "/></g></g></g><g fill="#bfe4f9" fill-opacity="0.4"><g transform="translate(297.228732, 106.403772)"><g><path d="M 52.6875 -60.203125 L 76.640625 -60.203125 L 29.34375 30.515625 L 5.40625 30.515625 L 26.171875 -9.390625 L -2.34375 -60.203125 L 21.59375 -60.203125 L 38.375 -29.34375 Z M 52.6875 -60.203125 "/></g></g></g><g fill="#bfe4f9" fill-opacity="1"><g transform="translate(4.066624, 101.216986)"><g><path d="M 0.9375 -77.453125 L 0.9375 -96.828125 L 69 -96.828125 L 69 -77.453125 L 46 -77.453125 L 46 0 L 23.9375 0 L 23.9375 -77.453125 Z M 0.9375 -77.453125 "/></g></g></g><g fill="#bfe4f9" fill-opacity="1"><g transform="translate(68.139592, 101.216986)"><g><path d="M 7.046875 0 L 7.046875 -60.203125 L 27.8125 -60.203125 L 27.8125 -51.515625 L 28.046875 -51.515625 C 28.203125 -51.828125 28.457031 -52.21875 28.8125 -52.6875 C 29.164062 -53.164062 29.925781 -53.988281 31.09375 -55.15625 C 32.269531 -56.332031 33.519531 -57.390625 34.84375 -58.328125 C 36.175781 -59.265625 37.898438 -60.101562 40.015625 -60.84375 C 42.128906 -61.59375 44.28125 -61.96875 46.46875 -61.96875 C 48.738281 -61.96875 50.96875 -61.65625 53.15625 -61.03125 C 55.351562 -60.40625 56.957031 -59.78125 57.96875 -59.15625 L 59.625 -58.203125 L 50.9375 -40.609375 C 48.351562 -42.796875 44.753906 -43.890625 40.140625 -43.890625 C 37.628906 -43.890625 35.472656 -43.34375 33.671875 -42.25 C 31.878906 -41.15625 30.609375 -39.820312 29.859375 -38.25 C 29.117188 -36.6875 28.59375 -35.359375 28.28125 -34.265625 C 27.96875 -33.171875 27.8125 -32.3125 27.8125 -31.6875 L 27.8125 0 Z M 7.046875 0 "/></g></g></g><g fill="#bfe4f9" fill-opacity="1"><g transform="translate(120.712157, 101.216986)"><g><path d="M 9.03125 -93.765625 C 11.457031 -96.191406 14.351562 -97.40625 17.71875 -97.40625 C 21.082031 -97.40625 23.976562 -96.191406 26.40625 -93.765625 C 28.832031 -91.335938 30.046875 -88.441406 30.046875 -85.078125 C 30.046875 -81.722656 28.832031 -78.832031 26.40625 -76.40625 C 23.976562 -73.976562 21.082031 -72.765625 17.71875 -72.765625 C 14.351562 -72.765625 11.457031 -73.976562 9.03125 -76.40625 C 6.613281 -78.832031 5.40625 -81.722656 5.40625 -85.078125 C 5.40625 -88.441406 6.613281 -91.335938 9.03125 -93.765625 Z M 7.046875 -60.203125 L 7.046875 0 L 27.8125 0 L 27.8125 -60.203125 Z M 7.046875 -60.203125 "/></g></g></g><g fill="#bfe4f9" fill-opacity="1"><g transform="translate(150.283954, 101.216986)"><g><path d="M 7.046875 0 L 7.046875 -60.203125 L 27.8125 -60.203125 L 27.8125 -53.875 L 28.046875 -53.875 C 33.441406 -59.269531 39.191406 -61.96875 45.296875 -61.96875 C 48.273438 -61.96875 51.226562 -61.578125 54.15625 -60.796875 C 57.09375 -60.015625 59.910156 -58.800781 62.609375 -57.15625 C 65.304688 -55.507812 67.492188 -53.179688 69.171875 -50.171875 C 70.859375 -47.160156 71.703125 -43.660156 71.703125 -39.671875 L 71.703125 0 L 50.9375 0 L 50.9375 -34.03125 C 50.9375 -37.164062 49.9375 -39.90625 47.9375 -42.25 C 45.945312 -44.59375 43.347656 -45.765625 40.140625 -45.765625 C 37.003906 -45.765625 34.164062 -44.550781 31.625 -42.125 C 29.082031 -39.707031 27.8125 -37.007812 27.8125 -34.03125 L 27.8125 0 Z M 7.046875 0 "/></g></g></g><g fill="#bfe4f9" fill-opacity="1"><g transform="translate(221.984719, 101.216986)"><g><path d="M 9.03125 -93.765625 C 11.457031 -96.191406 14.351562 -97.40625 17.71875 -97.40625 C 21.082031 -97.40625 23.976562 -96.191406 26.40625 -93.765625 C 28.832031 -91.335938 30.046875 -88.441406 30.046875 -85.078125 C 30.046875 -81.722656 28.832031 -78.832031 26.40625 -76.40625 C 23.976562 -73.976562 21.082031 -72.765625 17.71875 -72.765625 C 14.351562 -72.765625 11.457031 -73.976562 9.03125 -76.40625 C 6.613281 -78.832031 5.40625 -81.722656 5.40625 -85.078125 C 5.40625 -88.441406 6.613281 -91.335938 9.03125 -93.765625 Z M 7.046875 -60.203125 L 7.046875 0 L 27.8125 0 L 27.8125 -60.203125 Z M 7.046875 -60.203125 "/></g></g></g><g fill="#bfe4f9" fill-opacity="1"><g transform="translate(251.556516, 101.216986)"><g><path d="M 10.5625 -60.203125 L 10.5625 -82.625 L 31.328125 -82.625 L 31.328125 -60.203125 L 44.015625 -60.203125 L 44.015625 -44.359375 L 31.328125 -44.359375 L 31.328125 -25.234375 C 31.328125 -19.679688 32.894531 -16.90625 36.03125 -16.90625 C 36.8125 -16.90625 37.628906 -17.0625 38.484375 -17.375 C 39.347656 -17.6875 40.015625 -18 40.484375 -18.3125 L 41.1875 -18.78125 L 46.359375 -2 C 41.898438 0.507812 36.8125 1.765625 31.09375 1.765625 C 27.1875 1.765625 23.820312 1.082031 21 -0.28125 C 18.1875 -1.65625 16.054688 -3.492188 14.609375 -5.796875 C 13.160156 -8.109375 12.125 -10.535156 11.5 -13.078125 C 10.875 -15.628906 10.5625 -18.347656 10.5625 -21.234375 L 10.5625 -44.359375 L 1.875 -44.359375 L 1.875 -60.203125 Z M 10.5625 -60.203125 "/></g></g></g><g fill="#bfe4f9" fill-opacity="1"><g transform="translate(292.041946, 101.216986)"><g><path d="M 52.6875 -60.203125 L 76.640625 -60.203125 L 29.34375 30.515625 L 5.40625 30.515625 L 26.171875 -9.390625 L -2.34375 -60.203125 L 21.59375 -60.203125 L 38.375 -29.34375 Z M 52.6875 -60.203125 "/></g></g></g><g fill="#bfe4f9" fill-opacity="0.4"><g transform="translate(9.25341, 217.132419)"><g><path d="M 62.4375 -96.828125 L 62.4375 -77.453125 L 29.109375 -77.453125 L 29.109375 -58.203125 L 61.03125 -58.203125 L 61.03125 -38.84375 L 29.109375 -38.84375 L 29.109375 -19.359375 L 62.4375 -19.359375 L 62.4375 0 L 7.046875 0 L 7.046875 -96.828125 Z M 62.4375 -96.828125 "/></g></g></g><g fill="#bfe4f9" fill-opacity="0.4"><g transform="translate(71.448764, 217.132419)"><g><path d="M 22.296875 -60.203125 L 36.96875 -27.46875 L 51.640625 -60.203125 L 76.28125 -60.203125 L 44.015625 0 L 29.921875 0 L -2.34375 -60.203125 Z M 22.296875 -60.203125 "/></g></g></g><g fill="#bfe4f9" fill-opacity="0.4"><g transform="translate(139.511659, 217.132419)"><g><path d="M 11.140625 -7.453125 C 5.515625 -13.597656 2.703125 -21.128906 2.703125 -30.046875 C 2.703125 -38.960938 5.515625 -46.507812 11.140625 -52.6875 C 16.773438 -58.875 23.9375 -61.96875 32.625 -61.96875 C 40.601562 -61.96875 47.175781 -59.460938 52.34375 -54.453125 L 52.34375 -60.203125 L 73.109375 -60.203125 L 73.109375 0 L 52.578125 0 L 52.578125 -6.8125 L 52.34375 -6.8125 C 47.175781 -1.09375 40.601562 1.765625 32.625 1.765625 C 23.9375 1.765625 16.773438 -1.304688 11.140625 -7.453125 Z M 28.8125 -40.25 C 26.113281 -37.59375 24.765625 -34.191406 24.765625 -30.046875 C 24.765625 -25.898438 26.054688 -22.515625 28.640625 -19.890625 C 31.222656 -17.265625 34.625 -15.953125 38.84375 -15.953125 C 42.914062 -15.953125 46.257812 -17.28125 48.875 -19.9375 C 51.5 -22.601562 52.8125 -25.972656 52.8125 -30.046875 C 52.8125 -34.191406 51.460938 -37.59375 48.765625 -40.25 C 46.066406 -42.914062 42.757812 -44.25 38.84375 -44.25 C 34.851562 -44.25 31.507812 -42.914062 28.8125 -40.25 Z M 28.8125 -40.25 "/></g></g></g><g fill="#bfe4f9" fill-opacity="0.4"><g transform="translate(213.794149, 217.132419)"><g><path d="M 7.046875 0 L 7.046875 -60.203125 L 27.8125 -60.203125 L 27.8125 -53.875 L 28.046875 -53.875 C 33.441406 -59.269531 39.191406 -61.96875 45.296875 -61.96875 C 48.273438 -61.96875 51.226562 -61.578125 54.15625 -60.796875 C 57.09375 -60.015625 59.910156 -58.800781 62.609375 -57.15625 C 65.304688 -55.507812 67.492188 -53.179688 69.171875 -50.171875 C 70.859375 -47.160156 71.703125 -43.660156 71.703125 -39.671875 L 71.703125 0 L 50.9375 0 L 50.9375 -34.03125 C 50.9375 -37.164062 49.9375 -39.90625 47.9375 -42.25 C 45.945312 -44.59375 43.347656 -45.765625 40.140625 -45.765625 C 37.003906 -45.765625 34.164062 -44.550781 31.625 -42.125 C 29.082031 -39.707031 27.8125 -37.007812 27.8125 -34.03125 L 27.8125 0 Z M 7.046875 0 "/></g></g></g><g fill="#bfe4f9" fill-opacity="0.4"><g transform="translate(285.494914, 217.132419)"><g><path d="M 33.21875 -61.96875 C 36.65625 -61.96875 40.054688 -61.578125 43.421875 -60.796875 C 46.785156 -60.015625 49.289062 -59.226562 50.9375 -58.4375 L 53.40625 -57.265625 L 46.59375 -43.65625 C 41.894531 -46.15625 37.4375 -47.40625 33.21875 -47.40625 C 30.863281 -47.40625 29.195312 -47.148438 28.21875 -46.640625 C 27.25 -46.140625 26.765625 -45.1875 26.765625 -43.78125 C 26.765625 -43.46875 26.800781 -43.148438 26.875 -42.828125 C 26.957031 -42.515625 27.113281 -42.222656 27.34375 -41.953125 C 27.582031 -41.679688 27.796875 -41.445312 27.984375 -41.25 C 28.179688 -41.050781 28.515625 -40.832031 28.984375 -40.59375 C 29.453125 -40.363281 29.820312 -40.191406 30.09375 -40.078125 C 30.375 -39.960938 30.828125 -39.785156 31.453125 -39.546875 C 32.078125 -39.316406 32.546875 -39.140625 32.859375 -39.015625 C 33.171875 -38.898438 33.695312 -38.722656 34.4375 -38.484375 C 35.1875 -38.253906 35.753906 -38.101562 36.140625 -38.03125 C 38.566406 -37.320312 40.679688 -36.535156 42.484375 -35.671875 C 44.285156 -34.816406 46.179688 -33.644531 48.171875 -32.15625 C 50.171875 -30.664062 51.71875 -28.785156 52.8125 -26.515625 C 53.90625 -24.253906 54.453125 -21.675781 54.453125 -18.78125 C 54.453125 -5.082031 44.945312 1.765625 25.9375 1.765625 C 21.632812 1.765625 17.546875 1.097656 13.671875 -0.234375 C 9.796875 -1.566406 7 -2.894531 5.28125 -4.21875 L 2.703125 -6.34375 L 11.15625 -20.53125 C 11.78125 -19.988281 12.597656 -19.34375 13.609375 -18.59375 C 14.628906 -17.851562 16.46875 -16.835938 19.125 -15.546875 C 21.789062 -14.253906 24.097656 -13.609375 26.046875 -13.609375 C 30.359375 -13.609375 32.515625 -15.054688 32.515625 -17.953125 C 32.515625 -19.285156 31.960938 -20.320312 30.859375 -21.0625 C 29.765625 -21.8125 27.90625 -22.65625 25.28125 -23.59375 C 22.664062 -24.53125 20.613281 -25.390625 19.125 -26.171875 C 15.375 -28.128906 12.398438 -30.335938 10.203125 -32.796875 C 8.015625 -35.265625 6.921875 -38.53125 6.921875 -42.59375 C 6.921875 -48.695312 9.285156 -53.453125 14.015625 -56.859375 C 18.753906 -60.265625 25.15625 -61.96875 33.21875 -61.96875 Z M 33.21875 -61.96875 "/></g></g></g><g fill="#bfe4f9" fill-opacity="1"><g transform="translate(4.066624, 211.945632)"><g><path d="M 62.4375 -96.828125 L 62.4375 -77.453125 L 29.109375 -77.453125 L 29.109375 -58.203125 L 61.03125 -58.203125 L 61.03125 -38.84375 L 29.109375 -38.84375 L 29.109375 -19.359375 L 62.4375 -19.359375 L 62.4375 0 L 7.046875 0 L 7.046875 -96.828125 Z M 62.4375 -96.828125 "/></g></g></g><g fill="#bfe4f9" fill-opacity="1"><g transform="translate(66.261978, 211.945632)"><g><path d="M 22.296875 -60.203125 L 36.96875 -27.46875 L 51.640625 -60.203125 L 76.28125 -60.203125 L 44.015625 0 L 29.921875 0 L -2.34375 -60.203125 Z M 22.296875 -60.203125 "/></g></g></g><g fill="#bfe4f9" fill-opacity="1"><g transform="translate(134.324872, 211.945632)"><g><path d="M 11.140625 -7.453125 C 5.515625 -13.597656 2.703125 -21.128906 2.703125 -30.046875 C 2.703125 -38.960938 5.515625 -46.507812 11.140625 -52.6875 C 16.773438 -58.875 23.9375 -61.96875 32.625 -61.96875 C 40.601562 -61.96875 47.175781 -59.460938 52.34375 -54.453125 L 52.34375 -60.203125 L 73.109375 -60.203125 L 73.109375 0 L 52.578125 0 L 52.578125 -6.8125 L 52.34375 -6.8125 C 47.175781 -1.09375 40.601562 1.765625 32.625 1.765625 C 23.9375 1.765625 16.773438 -1.304688 11.140625 -7.453125 Z M 28.8125 -40.25 C 26.113281 -37.59375 24.765625 -34.191406 24.765625 -30.046875 C 24.765625 -25.898438 26.054688 -22.515625 28.640625 -19.890625 C 31.222656 -17.265625 34.625 -15.953125 38.84375 -15.953125 C 42.914062 -15.953125 46.257812 -17.28125 48.875 -19.9375 C 51.5 -22.601562 52.8125 -25.972656 52.8125 -30.046875 C 52.8125 -34.191406 51.460938 -37.59375 48.765625 -40.25 C 46.066406 -42.914062 42.757812 -44.25 38.84375 -44.25 C 34.851562 -44.25 31.507812 -42.914062 28.8125 -40.25 Z M 28.8125 -40.25 "/></g></g></g><g fill="#bfe4f9" fill-opacity="1"><g transform="translate(208.607363, 211.945632)"><g><path d="M 7.046875 0 L 7.046875 -60.203125 L 27.8125 -60.203125 L 27.8125 -53.875 L 28.046875 -53.875 C 33.441406 -59.269531 39.191406 -61.96875 45.296875 -61.96875 C 48.273438 -61.96875 51.226562 -61.578125 54.15625 -60.796875 C 57.09375 -60.015625 59.910156 -58.800781 62.609375 -57.15625 C 65.304688 -55.507812 67.492188 -53.179688 69.171875 -50.171875 C 70.859375 -47.160156 71.703125 -43.660156 71.703125 -39.671875 L 71.703125 0 L 50.9375 0 L 50.9375 -34.03125 C 50.9375 -37.164062 49.9375 -39.90625 47.9375 -42.25 C 45.945312 -44.59375 43.347656 -45.765625 40.140625 -45.765625 C 37.003906 -45.765625 34.164062 -44.550781 31.625 -42.125 C 29.082031 -39.707031 27.8125 -37.007812 27.8125 -34.03125 L 27.8125 0 Z M 7.046875 0 "/></g></g></g><g fill="#bfe4f9" fill-opacity="1"><g transform="translate(280.308128, 211.945632)"><g><path d="M 33.21875 -61.96875 C 36.65625 -61.96875 40.054688 -61.578125 43.421875 -60.796875 C 46.785156 -60.015625 49.289062 -59.226562 50.9375 -58.4375 L 53.40625 -57.265625 L 46.59375 -43.65625 C 41.894531 -46.15625 37.4375 -47.40625 33.21875 -47.40625 C 30.863281 -47.40625 29.195312 -47.148438 28.21875 -46.640625 C 27.25 -46.140625 26.765625 -45.1875 26.765625 -43.78125 C 26.765625 -43.46875 26.800781 -43.148438 26.875 -42.828125 C 26.957031 -42.515625 27.113281 -42.222656 27.34375 -41.953125 C 27.582031 -41.679688 27.796875 -41.445312 27.984375 -41.25 C 28.179688 -41.050781 28.515625 -40.832031 28.984375 -40.59375 C 29.453125 -40.363281 29.820312 -40.191406 30.09375 -40.078125 C 30.375 -39.960938 30.828125 -39.785156 31.453125 -39.546875 C 32.078125 -39.316406 32.546875 -39.140625 32.859375 -39.015625 C 33.171875 -38.898438 33.695312 -38.722656 34.4375 -38.484375 C 35.1875 -38.253906 35.753906 -38.101562 36.140625 -38.03125 C 38.566406 -37.320312 40.679688 -36.535156 42.484375 -35.671875 C 44.285156 -34.816406 46.179688 -33.644531 48.171875 -32.15625 C 50.171875 -30.664062 51.71875 -28.785156 52.8125 -26.515625 C 53.90625 -24.253906 54.453125 -21.675781 54.453125 -18.78125 C 54.453125 -5.082031 44.945312 1.765625 25.9375 1.765625 C 21.632812 1.765625 17.546875 1.097656 13.671875 -0.234375 C 9.796875 -1.566406 7 -2.894531 5.28125 -4.21875 L 2.703125 -6.34375 L 11.15625 -20.53125 C 11.78125 -19.988281 12.597656 -19.34375 13.609375 -18.59375 C 14.628906 -17.851562 16.46875 -16.835938 19.125 -15.546875 C 21.789062 -14.253906 24.097656 -13.609375 26.046875 -13.609375 C 30.359375 -13.609375 32.515625 -15.054688 32.515625 -17.953125 C 32.515625 -19.285156 31.960938 -20.320312 30.859375 -21.0625 C 29.765625 -21.8125 27.90625 -22.65625 25.28125 -23.59375 C 22.664062 -24.53125 20.613281 -25.390625 19.125 -26.171875 C 15.375 -28.128906 12.398438 -30.335938 10.203125 -32.796875 C 8.015625 -35.265625 6.921875 -38.53125 6.921875 -42.59375 C 6.921875 -48.695312 9.285156 -53.453125 14.015625 -56.859375 C 18.753906 -60.265625 25.15625 -61.96875 33.21875 -61.96875 Z M 33.21875 -61.96875 "/></g></g></g></svg>